<svg width="293" height="41" viewBox="0 0 293 41" fill="none" xmlns="http://www.w3.org/2000/svg">
<g clip-path="url(#clip0_1551_707)">
<path d="M82.1255 8.41846V12.5734H71.403V19.1592H79.6203V23.2418H71.403V34.0949H66.2498V8.41846H82.1255Z" fill="#00ADEA"/>
<path d="M85.5945 10.4211C85.3085 10.1393 85.0816 9.80424 84.9267 9.43511C84.7718 9.06597 84.6921 8.6701 84.6921 8.27029C84.6921 7.87047 84.7718 7.4746 84.9267 7.10547C85.0816 6.73634 85.3085 6.40123 85.5945 6.11944C86.2157 5.56265 87.0232 5.25439 87.8604 5.25439C88.6977 5.25439 89.5052 5.56265 90.1264 6.11944C90.4124 6.40123 90.6393 6.73634 90.7942 7.10547C90.949 7.4746 91.0288 7.87047 91.0288 8.27029C91.0288 8.6701 90.949 9.06597 90.7942 9.43511C90.6393 9.80424 90.4124 10.1393 90.1264 10.4211C89.5052 10.9779 88.6977 11.2862 87.8604 11.2862C87.0232 11.2862 86.2157 10.9779 85.5945 10.4211ZM90.4025 13.7144V34.0961H85.244V13.7166L90.4025 13.7144Z" fill="#00ADEA"/>
<path d="M102.755 14.3393C103.873 13.714 105.138 13.3968 106.421 13.4207V18.8243H105.062C103.738 18.7264 102.427 19.1345 101.396 19.9649C100.573 20.7253 100.162 22.0496 100.161 23.9379V34.0952H95.0042V13.7142H100.161V16.879C100.795 15.8283 101.688 14.9545 102.755 14.3393Z" fill="#00ADEA"/>
<path d="M140.981 15.7202C142.516 17.2532 143.284 19.3927 143.284 22.1388V34.0953H138.125V22.839C138.216 21.5088 137.779 20.1961 136.908 19.1807C136.477 18.7501 135.959 18.4145 135.388 18.1958C134.818 17.9771 134.207 17.8803 133.596 17.9116C132.981 17.8812 132.368 17.9785 131.793 18.197C131.219 18.4155 130.697 18.7506 130.261 19.1807C129.379 20.1917 128.935 21.5078 129.028 22.842V34.0953H123.869V22.839C123.961 21.508 123.525 20.194 122.653 19.1778C122.222 18.7471 121.704 18.4114 121.133 18.1927C120.562 17.9741 119.951 17.8773 119.34 17.9087C118.72 17.8757 118.1 17.9716 117.52 18.1901C116.94 18.4087 116.412 18.7451 115.97 19.1778C115.087 20.1886 114.643 21.5047 114.735 22.839V34.0953H109.578V13.7143H114.735V16.178C115.413 15.3108 116.291 14.6178 117.295 14.1575C118.373 13.6592 119.551 13.4075 120.74 13.4208C122.228 13.395 123.699 13.7432 125.015 14.4328C126.25 15.0898 127.263 16.0936 127.926 17.3186C128.605 16.1259 129.607 15.1449 130.818 14.4861C132.431 13.6135 134.278 13.2632 136.102 13.4843C137.925 13.7055 139.634 14.4871 140.987 15.7195L140.981 15.7202Z" fill="#00ADEA"/>
<path d="M147.563 18.349C148.312 16.8365 149.474 15.5627 150.916 14.6723C152.341 13.8099 153.982 13.3637 155.651 13.385C157.04 13.3534 158.414 13.6695 159.648 14.3043C160.726 14.8634 161.664 15.6551 162.393 16.6213V13.7143H167.587V34.096H162.393V31.1138C161.683 32.1122 160.741 32.9264 159.648 33.4877C158.404 34.1311 157.016 34.4531 155.613 34.4239C153.952 34.4407 152.321 33.9813 150.916 33.1007C149.474 32.1853 148.314 30.8938 147.563 29.3679C146.714 27.6452 146.291 25.7465 146.329 23.8292C146.293 21.9308 146.716 20.0515 147.563 18.349ZM161.657 20.6856C161.202 19.8277 160.513 19.1139 159.669 18.6257C158.853 18.152 157.924 17.9039 156.978 17.9072C156.047 17.9007 155.132 18.1429 154.328 18.6082C153.495 19.096 152.813 19.8012 152.356 20.6469C151.833 21.6256 151.573 22.7217 151.601 23.8292C151.575 24.9481 151.834 26.0554 152.353 27.0487C152.811 27.9187 153.498 28.6492 154.341 29.162C155.134 29.6445 156.045 29.8995 156.975 29.8987C157.921 29.9019 158.85 29.6538 159.666 29.1802C160.51 28.692 161.199 27.9782 161.654 27.1203C162.138 26.1155 162.39 25.0157 162.39 23.9019C162.39 22.788 162.138 21.6883 161.654 20.6834L161.657 20.6856Z" fill="#00ADEA"/>
<path d="M197.453 8.41846L188.021 34.0949H181.759L172.326 8.41846H177.852L184.926 28.8359L191.964 8.41846H197.453Z" fill="#004F9F"/>
<path d="M200.897 10.4209C200.611 10.1391 200.384 9.804 200.229 9.43487C200.075 9.06574 199.995 8.66987 199.995 8.27005C199.995 7.87023 200.075 7.47437 200.229 7.10523C200.384 6.7361 200.611 6.401 200.897 6.11921C201.518 5.56227 202.326 5.25391 203.163 5.25391C204.001 5.25391 204.808 5.56227 205.429 6.11921C205.715 6.401 205.942 6.7361 206.097 7.10523C206.252 7.47437 206.331 7.87023 206.331 8.27005C206.331 8.66987 206.252 9.06574 206.097 9.43487C205.942 9.804 205.715 10.1391 205.429 10.4209C204.808 10.9778 204.001 11.2862 203.163 11.2862C202.326 11.2862 201.518 10.9778 200.897 10.4209ZM205.705 13.7142V34.0959H200.548V13.7163L205.705 13.7142Z" fill="#004F9F"/>
<path d="M218.122 14.3393C219.239 13.7139 220.504 13.3967 221.787 13.4207V18.8243H220.424C219.101 18.7264 217.789 19.1345 216.759 19.9649C215.936 20.7253 215.524 22.0496 215.524 23.938V34.0952H210.367V13.7142H215.524V16.879C216.159 15.828 217.053 14.9541 218.122 14.3393Z" fill="#004F9F"/>
<path d="M230.866 17.9444V27.8023C230.841 28.0707 230.872 28.3415 230.957 28.5975C231.043 28.8535 231.181 29.0892 231.363 29.2897C231.845 29.6438 232.443 29.8082 233.04 29.7512H235.434V34.0982H232.195C227.848 34.0982 225.674 31.9886 225.674 27.7694V8.67578H230.87V13.7142H235.434V17.9444H230.866Z" fill="#004F9F"/>
<path d="M258.424 13.7144V34.0961H253.229V31.5213C252.55 32.4166 251.657 33.1304 250.631 33.5988C249.543 34.1061 248.353 34.3639 247.151 34.3531C245.674 34.3815 244.214 34.033 242.912 33.341C241.672 32.6543 240.666 31.6176 240.021 30.3625C239.289 28.9088 238.928 27.2989 238.971 25.6745V13.7144H244.129V24.9348C244.038 26.2875 244.473 27.6235 245.345 28.6677C245.77 29.1084 246.286 29.4531 246.858 29.6784C247.429 29.9037 248.043 30.0043 248.658 29.9733C249.278 30.0067 249.899 29.9074 250.478 29.6822C251.056 29.4569 251.58 29.1109 252.012 28.6677C252.883 27.6232 253.318 26.2874 253.227 24.9348V13.7144H258.424Z" fill="#004F9F"/>
<path d="M263.414 18.349C264.164 16.8364 265.326 15.5626 266.769 14.6723C268.193 13.8099 269.834 13.3637 271.503 13.385C272.892 13.3534 274.266 13.6696 275.5 14.3043C276.577 14.8636 277.515 15.6553 278.244 16.6213V13.7143H283.439V34.096H278.244V31.1138C277.534 32.112 276.593 32.9262 275.5 33.4877C274.255 34.1312 272.868 34.4532 271.465 34.4239C269.803 34.4408 268.172 33.9813 266.768 33.1007C265.325 32.1854 264.165 30.894 263.414 29.3679C262.564 27.6452 262.141 25.7465 262.18 23.8292C262.143 21.9308 262.567 20.0514 263.414 18.349ZM277.508 20.6856C277.053 19.8277 276.364 19.1139 275.52 18.6257C274.704 18.152 273.775 17.9039 272.829 17.9072C271.899 17.9007 270.983 18.1428 270.179 18.6082C269.346 19.0963 268.664 19.8017 268.207 20.6477C267.684 21.6263 267.423 22.7224 267.452 23.8299C267.427 24.9488 267.686 26.0559 268.207 27.0487C268.664 27.9186 269.351 28.649 270.195 29.1619C270.987 29.6445 271.899 29.8996 272.829 29.8987C273.774 29.9019 274.703 29.6538 275.519 29.1802C276.364 28.692 277.052 27.9782 277.507 27.1203C277.992 26.1154 278.243 25.0157 278.243 23.9019C278.243 22.788 277.992 21.6883 277.507 20.6834L277.508 20.6856Z" fill="#004F9F"/>
<path d="M292.997 6.87354V34.0959H287.844V6.87354H292.997Z" fill="#004F9F"/>
<path d="M25.1105 24.9061L33.9962 16.0925L25.1105 7.27881L7.33984 24.9061L22.4691 39.9149C23.1691 40.6092 24.1184 40.9993 25.1083 40.9993C26.0982 40.9993 27.0475 40.6092 27.7475 39.9149L33.994 33.7191L25.1105 24.9061Z" fill="#004F9F"/>
<path d="M13.5854 1.08432L1.09318 13.4753C0.393229 14.1696 0 15.1113 0 16.0931C0 17.075 0.393229 18.0166 1.09318 18.7109L7.33968 24.9068L25.1096 7.27799L18.8639 1.08432C18.1639 0.390041 17.2145 0 16.2246 0C15.2348 0 14.2854 0.390041 13.5854 1.08432Z" fill="url(#paint0_linear_1551_707)"/>
<path d="M31.3568 1.08432L25.1104 7.27799L33.9961 16.0917L25.1104 24.9061L33.9961 33.719L49.1275 18.7102C49.8275 18.0159 50.2207 17.0743 50.2207 16.0924C50.2207 15.1105 49.8275 14.1689 49.1275 13.4746L36.6353 1.08432C35.9353 0.390041 34.9859 0 33.9961 0C33.0062 0 32.0568 0.390041 31.3568 1.08432Z" fill="#00ADEA"/>
</g>
<defs>
<linearGradient id="paint0_linear_1551_707" x1="10.5963" y1="22.1919" x2="14.2051" y2="2.13171" gradientUnits="userSpaceOnUse">
<stop offset="0.034" stop-color="#E5007E"/>
<stop offset="0.999" stop-color="#F29100"/>
</linearGradient>
<clipPath id="clip0_1551_707">
<rect width="293" height="41" fill="white"/>
</clipPath>
</defs>
</svg>
