<svg width="51" height="41" viewBox="0 0 51 41" fill="none" xmlns="http://www.w3.org/2000/svg">
<path d="M25.1104 24.9061L33.9961 16.0925L25.1104 7.27881L7.33972 24.9061L22.469 39.9149C23.1689 40.6092 24.1183 40.9993 25.1082 40.9993C26.0981 40.9993 27.0474 40.6092 27.7474 39.9149L33.9939 33.7191L25.1104 24.9061Z" fill="#004F9F"/>
<path d="M13.5855 1.08432L1.09324 13.4753C0.39329 14.1696 6.10352e-05 15.1113 6.10352e-05 16.0931C6.10352e-05 17.075 0.39329 18.0166 1.09324 18.7109L7.33974 24.9068L25.1097 7.27799L18.8639 1.08432C18.1639 0.390041 17.2146 0 16.2247 0C15.2348 0 14.2855 0.390041 13.5855 1.08432Z" fill="url(#paint0_linear_1781_3016)"/>
<path d="M31.3569 1.08432L25.1104 7.27799L33.9961 16.0917L25.1104 24.9061L33.9961 33.719L49.1276 18.7102C49.8275 18.0159 50.2208 17.0743 50.2208 16.0924C50.2208 15.1105 49.8275 14.1689 49.1276 13.4746L36.6353 1.08432C35.9354 0.390041 34.986 0 33.9961 0C33.0062 0 32.0569 0.390041 31.3569 1.08432Z" fill="#00ADEA"/>
<defs>
<linearGradient id="paint0_linear_1781_3016" x1="10.5963" y1="22.1919" x2="14.2052" y2="2.13171" gradientUnits="userSpaceOnUse">
<stop offset="0.034" stop-color="#E5007E"/>
<stop offset="0.999" stop-color="#F29100"/>
</linearGradient>
</defs>
</svg>
