<svg width="26" height="25" viewBox="0 0 26 25" fill="none" xmlns="http://www.w3.org/2000/svg">
<path d="M22.0173 19.5614V16.8517C22.0283 16.4087 21.8755 15.9771 21.5879 15.639C20.7768 14.6856 17.995 14.0758 16.8924 14.31C16.0328 14.4926 15.4314 15.3538 14.8435 15.9394C12.573 14.6535 10.693 12.7812 9.40192 10.5198C9.98985 9.93429 10.8546 9.33536 11.0379 8.47928C11.2727 7.38277 10.6625 4.62449 9.71369 3.81184C9.37996 3.526 8.95327 3.37077 8.51313 3.37509H5.79234C4.75565 3.37606 3.89316 4.30395 3.98755 5.34419C3.98047 14.31 10.995 21.375 20.0402 21.3679C21.0882 21.4623 22.0215 20.5973 22.0173 19.5614Z" stroke="white" stroke-width="1.5" stroke-linecap="round" stroke-linejoin="round"/>
</svg>
