<svg width="24" height="22" viewBox="0 0 24 22" fill="none" xmlns="http://www.w3.org/2000/svg">
<path fill-rule="evenodd" clip-rule="evenodd" d="M3.38548 11.375C3.38548 6.68057 7.31996 2.875 12.1734 2.875C17.0268 2.875 20.9613 6.68057 20.9613 11.375C20.9613 16.0694 17.0268 19.875 12.1734 19.875C10.4445 19.875 8.83527 19.3932 7.4775 18.5611C7.22481 18.4063 6.91518 18.3649 6.62855 18.4476L3.65188 19.3069L4.77264 16.7703C4.90511 16.4705 4.87815 16.1271 4.70041 15.8501C3.86693 14.551 3.38548 13.0189 3.38548 11.375ZM12.1734 0.875C6.17798 0.875 1.31774 5.576 1.31774 11.375C1.31774 13.2131 1.8069 14.9433 2.66656 16.4477L0.883978 20.482C0.726394 20.8387 0.796244 21.2513 1.0632 21.5407C1.33016 21.8302 1.74607 21.9442 2.13033 21.8332L6.78215 20.4905C8.37125 21.3715 10.2128 21.875 12.1734 21.875C18.1688 21.875 23.029 17.174 23.029 11.375C23.029 5.576 18.1688 0.875 12.1734 0.875ZM14.5435 13.5574L13.1848 14.4831C12.5485 14.1325 11.8449 13.6431 11.1392 12.9605C10.4055 12.2509 9.86165 11.5183 9.46061 10.8463L10.3241 10.1374C10.6946 9.83318 10.796 9.32031 10.5678 8.90526L9.46756 6.90527C9.3194 6.63596 9.05227 6.44679 8.7421 6.39153C8.43192 6.33628 8.11264 6.42099 7.87501 6.62158L7.54882 6.89694C6.76439 7.55913 6.30046 8.64728 6.68497 9.74908C7.0836 10.8913 7.93432 12.689 9.6771 14.3747C11.5521 16.1883 13.4567 16.9025 14.5705 17.1799C15.4679 17.4033 16.3171 17.1038 16.9155 16.6322L17.5271 16.1502C17.7886 15.9441 17.9298 15.6274 17.9051 15.3019C17.8804 14.9764 17.6931 14.683 17.4032 14.5159L15.6681 13.5159C15.3176 13.314 14.8771 13.3302 14.5435 13.5574Z" fill="white"/>
</svg>
